<svg width="59" height="44" viewBox="0 0 59 44" fill="none" xmlns="http://www.w3.org/2000/svg">
<path d="M24.2351 29.7713L25.1065 30.2371C26.4568 30.959 27.9648 31.3356 29.496 31.3333L29.5 31.3333C34.6548 31.3333 38.8333 27.1548 38.8333 22C38.8333 16.8452 34.6548 12.6667 29.5 12.6667C24.3452 12.6667 20.1667 16.8452 20.1667 22V22.004C20.1644 23.5352 20.541 25.0432 21.2629 26.3935L21.7287 27.2649L21.0124 30.4876L24.2351 29.7713ZM17.5 34L18.9112 27.6508C17.9819 25.9125 17.497 23.9712 17.5 22C17.5 15.3724 22.8724 10 29.5 10C36.1276 10 41.5 15.3724 41.5 22C41.5 28.6276 36.1276 34 29.5 34C27.5288 34.003 25.5875 33.5181 23.8492 32.5888L17.5 34Z" fill="#0F1828"/>
</svg>
