<svg width="58" height="44" viewBox="0 0 58 44" fill="none" xmlns="http://www.w3.org/2000/svg">
<path d="M25 10C21.3181 10 18.3334 12.9848 18.3334 16.6667C18.3334 20.3486 21.3181 23.3333 25 23.3333C28.6819 23.3333 31.6667 20.3486 31.6667 16.6667C31.6667 12.9848 28.6819 10 25 10ZM21 16.6667C21 14.4575 22.7909 12.6667 25 12.6667C27.2092 12.6667 29 14.4575 29 16.6667C29 18.8758 27.2092 20.6667 25 20.6667C22.7909 20.6667 21 18.8758 21 16.6667Z" fill="#0F1828"/>
<path d="M35.5446 16.9577C35.1695 16.7665 34.7544 16.6667 34.3334 16.6667V14.0001C35.1755 14.0001 36.0056 14.1994 36.7559 14.5819C36.8385 14.6241 36.9199 14.6683 37 14.7145C37.6472 15.0882 38.2096 15.5943 38.6498 16.2007C39.1444 16.8823 39.4706 17.6713 39.6017 18.5032C39.7328 19.335 39.665 20.1861 39.4039 20.9867C39.1429 21.7874 38.6959 22.5148 38.0996 23.1095C37.5034 23.7042 36.7748 24.1492 35.9735 24.4082C35.2604 24.6387 34.5078 24.7159 33.7648 24.6363C33.6728 24.6264 33.581 24.6141 33.4894 24.5995C32.6584 24.4663 31.8708 24.1384 31.1909 23.6425L31.1895 23.6415L32.7614 21.4874C33.1015 21.7356 33.4956 21.8997 33.9114 21.9663C34.3271 22.033 34.7527 22.0002 35.1534 21.8707C35.554 21.7412 35.9183 21.5187 36.2164 21.2214C36.5146 20.924 36.738 20.5603 36.8686 20.16C36.9991 19.7597 37.033 19.3342 36.9674 18.9183C36.9019 18.5023 36.7388 18.1079 36.4915 17.7671C36.2442 17.4263 35.9197 17.149 35.5446 16.9577Z" fill="#0F1828"/>
<path d="M39.6642 34C39.6642 33.2999 39.5263 32.6068 39.2584 31.96C38.9905 31.3132 38.5978 30.7256 38.1028 30.2306C37.6078 29.7355 37.0201 29.3429 36.3734 29.075C35.7266 28.8071 35.0334 28.6692 34.3334 28.6692V26C35.2428 26 36.1445 26.1551 37 26.4575C37.1328 26.5045 37.2644 26.555 37.3948 26.609C38.3654 27.011 39.2473 27.6003 39.9902 28.3431C40.7331 29.086 41.3224 29.9679 41.7244 30.9385C41.7784 31.0689 41.8289 31.2006 41.8758 31.3333C42.1783 32.1888 42.3334 33.0906 42.3334 34H39.6642Z" fill="#0F1828"/>
<path d="M34.3334 34H31.6667C31.6667 30.3181 28.6819 27.3333 25 27.3333C21.3181 27.3333 18.3334 30.3181 18.3334 34H15.6667C15.6667 28.8453 19.8454 24.6667 25 24.6667C30.1547 24.6667 34.3334 28.8453 34.3334 34Z" fill="#0F1828"/>
</svg>
